<svg width="136" height="30" viewBox="0 0 136 30" fill="none" xmlns="http://www.w3.org/2000/svg">
<path d="M13.9017 17.7968C12.1838 17.7968 10.7128 18.8702 10.1116 20.3883V20.3847C9.94155 20.7968 9.5246 21.0877 9.03787 21.0877C8.55113 21.0877 8.13776 20.7968 7.96776 20.3847L7.93376 20.2998C7.77808 19.8733 7.90334 19.3221 8.24513 18.9751L10.9884 16.2046C11.332 15.8576 11.8796 15.7311 12.3001 15.8883C12.7922 16.0998 13.3344 16.219 13.9017 16.219C16.1564 16.219 17.9834 14.3739 17.9834 12.0968C17.9834 9.81964 16.1564 7.97446 13.9017 7.97446C12.1856 7.97446 10.7164 9.04434 10.1151 10.5606C9.94513 10.9727 9.5246 11.26 9.03966 11.26C8.55471 11.26 8.13597 10.969 7.96776 10.557C7.36292 9.04254 5.89734 7.97266 4.18124 7.97266C1.92471 7.97446 0.0976562 9.82145 0.0976562 12.0968C0.0976562 14.3721 1.92471 16.219 4.17945 16.219C5.90092 16.219 7.37187 15.1419 7.97313 13.6184V13.6239C8.14313 13.2118 8.55292 12.9208 9.03966 12.9208C9.52639 12.9208 9.94155 13.2118 10.1116 13.6239L10.1473 13.7124C10.303 14.1389 10.1796 14.6919 9.83597 15.0389L7.09271 17.8094C6.74913 18.1564 6.20155 18.2829 5.78102 18.1239C5.28892 17.9124 4.74671 17.7949 4.17945 17.7949C1.92471 17.7949 0.0976563 19.6401 0.0976563 21.9172C0.0976563 24.1943 1.92471 26.0395 4.17945 26.0395C5.89734 26.0395 7.36829 24.966 7.96955 23.448V23.4516C8.13955 23.0395 8.55292 22.7486 9.03966 22.7486C9.52639 22.7486 9.94334 23.0395 10.1133 23.4516C10.7146 24.9696 12.1856 26.0413 13.9034 26.0413C16.1582 26.0413 17.9852 24.1962 17.9852 21.919C17.9852 19.6419 16.1582 17.7968 13.9034 17.7968V17.8004L13.9017 17.7968Z" fill="#143720"/>
<path fill-rule="evenodd" clip-rule="evenodd" d="M51.826 13.0348L51.7741 12.9281C51.2283 11.8076 50.4356 10.9311 49.3977 10.3004C48.3723 9.648 47.1447 9.32812 45.7275 9.32812C44.3102 9.32812 43.1596 9.66608 42.1217 10.3492L42.0215 10.4161C40.9854 11.1191 40.1783 12.0607 39.5967 13.2335V13.2372C39.0331 14.4101 38.7539 15.6841 38.7539 17.0595C38.7539 18.5251 39.051 19.8408 39.654 20.9992V21.0028C40.2732 22.1576 41.1214 23.0703 42.1933 23.7354H42.1951C43.2902 24.404 44.5339 24.7348 45.9172 24.7348C47.4812 24.7348 48.8036 24.3787 49.8683 23.6468C50.9188 22.9275 51.7276 22.0167 52.2913 20.9161L52.4022 20.701L50.0258 19.5354L49.9184 19.7269C49.5337 20.4137 49.0201 20.9956 48.3723 21.4727C47.7675 21.9137 46.9819 22.1432 45.9995 22.1432C45.2586 22.1432 44.5411 21.9607 43.845 21.592C43.1775 21.2305 42.6245 20.6757 42.1897 19.9185C41.8425 19.3167 41.6314 18.5811 41.5634 17.7082H52.5221L52.5597 17.5185C52.5794 17.4119 52.5901 17.2908 52.5901 17.157C52.608 17.0233 52.6188 16.8896 52.6188 16.7558C52.6188 15.3733 52.3557 14.1299 51.826 13.0348ZM41.737 15.3082C41.8139 14.9902 41.9141 14.6884 42.0358 14.401C42.3847 13.6257 42.8697 13.0257 43.4871 12.5938C44.1152 12.1474 44.8596 11.9197 45.7275 11.9197C46.4665 11.9197 47.066 12.0444 47.5331 12.2811L47.542 12.2848C48.0395 12.5107 48.4367 12.8107 48.7392 13.1848L48.7427 13.1884L48.7463 13.1938C49.072 13.5552 49.3011 13.9492 49.4353 14.3757V14.3811L49.4389 14.3848C49.5605 14.7137 49.6375 15.0209 49.6751 15.3082H41.737Z" fill="#143720"/>
<path fill-rule="evenodd" clip-rule="evenodd" d="M77.4877 13.2787L77.4287 13.1685C76.8077 11.9956 75.9434 11.0649 74.8357 10.3817C73.7209 9.67692 72.4414 9.32812 71.0027 9.32812C69.5639 9.32812 68.2845 9.66788 67.1696 10.3546C66.0619 11.0378 65.1869 11.9703 64.5498 13.1432C63.9289 14.3016 63.6211 15.601 63.6211 17.0323C63.6211 18.4637 63.9289 19.7703 64.548 20.945H64.5498V20.9486C65.1887 22.1052 66.0619 23.0269 67.1696 23.7082C68.2845 24.395 69.5639 24.7348 71.0027 24.7348C72.4414 24.7348 73.7209 24.395 74.8357 23.7082C75.9434 23.0251 76.8095 22.1034 77.4287 20.9468C78.0675 19.7703 78.386 18.4637 78.386 17.0323C78.386 15.601 78.0872 14.4082 77.4877 13.2787ZM74.9503 19.8064C74.5154 20.5637 73.9428 21.1384 73.2359 21.5396H73.2341C72.5416 21.9426 71.799 22.1432 71.0027 22.1432C70.2064 22.1432 69.4548 21.9426 68.7426 21.5396C68.0787 21.1637 67.5365 20.6341 67.1124 19.9474L67.0282 19.8064C66.5988 19.042 66.3787 18.1185 66.3787 17.0323C66.3787 15.9462 66.5988 15.0299 67.0282 14.2835H67.03C67.4649 13.5064 68.0357 12.9245 68.7426 12.5233C69.4548 12.1203 70.2064 11.9197 71.0027 11.9197C71.799 11.9197 72.5416 12.1203 73.2341 12.5233H73.2359C73.9428 12.9245 74.5136 13.5082 74.9485 14.2817C75.3779 15.0299 75.598 15.9426 75.598 17.0323C75.598 18.1221 75.3779 19.042 74.9485 19.8064H74.9503Z" fill="#143720"/>
<path fill-rule="evenodd" clip-rule="evenodd" d="M105.991 10.9058C104.863 9.84499 103.317 9.32812 101.385 9.32812C100.579 9.32812 99.81 9.44198 99.0781 9.66969H99.0763C98.3623 9.8974 97.7199 10.2209 97.1527 10.642C96.5854 11.0613 96.1112 11.5582 95.7318 12.1329L95.6101 12.3191L97.7342 13.9275L97.8684 13.7125C98.2281 13.1432 98.7131 12.704 99.3322 12.3914H99.334C99.9747 12.0588 100.656 11.8926 101.385 11.8926C102.408 11.8926 103.265 12.189 103.965 12.7745C104.652 13.351 104.999 14.1281 104.999 15.1293V15.5974C104.829 15.5233 104.633 15.4492 104.411 15.3769C104.013 15.2251 103.546 15.1022 103.011 15.0101C102.467 14.8962 101.879 14.8402 101.247 14.8402C100.148 14.8402 99.1372 15.0281 98.2156 15.4076C97.2887 15.7709 96.5424 16.3275 95.9859 17.0811L95.934 17.1516C95.4061 17.8854 95.1484 18.7781 95.1484 19.8155C95.1484 20.7552 95.3757 21.6082 95.8374 22.3637L95.841 22.3691C96.3188 23.1046 96.9701 23.6811 97.7843 24.104C98.6057 24.5269 99.5523 24.7348 100.619 24.7348C101.354 24.7348 102.029 24.6119 102.643 24.3607C103.264 24.1131 103.804 23.7986 104.262 23.4137L104.266 23.4101C104.549 23.1588 104.794 22.904 104.999 22.6402V24.2938H107.675V15.1582C107.675 13.3944 107.118 11.9685 105.991 10.9058ZM104.43 20.0811C104.051 20.7263 103.543 21.2414 102.902 21.6245H102.9C102.283 22.0076 101.598 22.1992 100.839 22.1992C99.989 22.1992 99.3072 21.9715 98.7739 21.5341C98.2478 21.1022 97.9866 20.5456 97.9866 19.8426C97.9866 19.1034 98.2657 18.4872 98.8366 17.9793C99.3931 17.4841 100.299 17.2113 101.603 17.2113C102.33 17.2113 102.988 17.3016 103.584 17.4769H103.586C104.151 17.6414 104.62 17.8474 104.998 18.0932C104.978 18.8125 104.788 19.4739 104.43 20.0811Z" fill="#143720"/>
<path fill-rule="evenodd" clip-rule="evenodd" d="M116.92 15.8935L114.904 15.3712C114.249 15.1923 113.698 14.9628 113.248 14.6827C112.867 14.4351 112.674 14.0736 112.674 13.5586C112.674 13.0652 112.901 12.6784 113.404 12.3839H113.406L113.408 12.3802C113.93 12.0567 114.551 11.8905 115.278 11.8905C115.956 11.8905 116.568 12.0224 117.115 12.2808C117.642 12.5302 118.071 12.973 118.398 13.6345L118.499 13.8369L120.927 12.711L120.841 12.5013C120.573 11.8489 120.184 11.2959 119.676 10.8459L119.572 10.7574C119.055 10.3074 118.454 9.96759 117.774 9.73807L117.636 9.69289C116.92 9.44711 116.151 9.32422 115.33 9.32422C114.392 9.32422 113.506 9.4941 112.676 9.83747C111.844 10.1628 111.165 10.6435 110.646 11.2833C110.119 11.9357 109.857 12.7146 109.857 13.6092C109.857 14.3989 110.04 15.0893 110.414 15.6676L110.419 15.6748C110.804 16.2188 111.303 16.6652 111.913 17.0104C112.513 17.3501 113.148 17.6158 113.821 17.8037H113.825L115.519 18.2465C116.165 18.4092 116.707 18.5899 117.146 18.7851C117.577 18.9766 117.888 19.2043 118.096 19.4628V19.4664L118.101 19.47C118.296 19.6959 118.398 19.9887 118.398 20.3628C118.398 20.9592 118.152 21.3965 117.64 21.7037H117.636C117.117 22.0272 116.453 22.1953 115.628 22.1953C114.803 22.1953 114.032 21.9766 113.383 21.5447C112.733 21.1128 112.234 20.4983 111.885 19.6905L111.79 19.4718L109.301 20.5959L109.378 20.8037C109.643 21.5122 110.04 22.17 110.566 22.7772L110.57 22.7808V22.7845C111.122 23.379 111.804 23.8561 112.613 24.2176H112.618C113.452 24.5646 114.401 24.7327 115.462 24.7327C116.523 24.7327 117.466 24.5537 118.334 24.1905C119.204 23.8272 119.903 23.3086 120.422 22.629C120.948 21.9405 121.208 21.1272 121.208 20.1983C121.208 19.1447 120.839 18.2483 120.102 17.5236C119.37 16.7845 118.298 16.2459 116.911 15.8917L116.92 15.8935Z" fill="#143720"/>
<path fill-rule="evenodd" clip-rule="evenodd" d="M37.6712 12.1009V9.76953H26.3993V12.3611H34.103L26.1523 21.9629V24.2942H37.8895V21.7027H29.7223L37.6712 12.1009Z" fill="#143720"/>
<path fill-rule="evenodd" clip-rule="evenodd" d="M62.4051 9.44222C62.1438 9.38258 61.8002 9.35547 61.3815 9.35547C60.8017 9.35547 60.2165 9.48197 59.626 9.73137C59.0552 9.9627 58.5416 10.2898 58.0853 10.7109C57.8419 10.9368 57.6343 11.1862 57.4643 11.4591V9.76752H54.7891V24.294H57.5735V16.2049C57.5735 15.4693 57.7292 14.8006 58.037 14.1934C58.3662 13.5826 58.7957 13.0982 59.3272 12.735C59.8533 12.3753 60.4259 12.1964 61.0522 12.1964C61.3815 12.1964 61.7018 12.2308 62.0114 12.3013H62.015C62.3424 12.3717 62.6413 12.4766 62.9133 12.6121L63.2497 12.782V9.71511L63.1137 9.65185C62.8936 9.55065 62.6574 9.48198 62.4033 9.44222H62.4051Z" fill="#143720"/>
<path fill-rule="evenodd" clip-rule="evenodd" d="M92.4929 12.132C92.0921 11.2645 91.489 10.5778 90.6856 10.0772C89.8749 9.57117 88.8549 9.32539 87.6434 9.32539C86.6038 9.32539 85.6446 9.58382 84.7713 10.1007C84.1522 10.4621 83.6529 10.8868 83.2771 11.3802L83.3469 10.1531V10.1459V4.08984H80.5625V24.2929H83.3469V16.2308C83.3469 15.5151 83.5116 14.8248 83.8408 14.1579C84.1701 13.4929 84.6192 12.9525 85.1883 12.5332C85.7484 12.123 86.3819 11.917 87.0977 11.917C87.6828 11.917 88.2107 12.038 88.6849 12.2784L88.6939 12.282C89.1717 12.4989 89.5546 12.8567 89.8427 13.3682V13.3718L89.8481 13.3754C90.1451 13.8579 90.3044 14.5266 90.3044 15.4013V24.291H93.0888V15.0435C93.0888 13.9844 92.9045 13.0374 92.5305 12.2115L92.4929 12.132Z" fill="#143720"/>
<path fill-rule="evenodd" clip-rule="evenodd" d="M135.755 15.0471V24.2929H132.968V15.4049C132.968 14.5302 132.809 13.8615 132.512 13.379V13.3754L132.509 13.37C132.22 12.8585 131.839 12.5007 131.36 12.2838H131.356L131.351 12.2802C130.877 12.0398 130.349 11.9188 129.764 11.9188C129.046 11.9188 128.412 12.1248 127.854 12.535C127.285 12.9525 126.836 13.4929 126.505 14.1597C126.176 14.8266 126.011 15.5151 126.011 16.2308V24.2929H123.227V4.08984H126.011V10.1549L125.941 11.382C126.285 10.932 126.734 10.5362 127.28 10.1965L127.437 10.1025C128.31 9.58563 129.27 9.32719 130.309 9.32719C131.521 9.32719 132.541 9.57117 133.351 10.079C134.153 10.5796 134.758 11.2663 135.159 12.1338L135.195 12.2133C135.57 13.041 135.755 13.9862 135.755 15.0471Z" fill="#143720"/>
</svg>
