<svg xmlns="http://www.w3.org/2000/svg" viewBox="0 0 24 28" fill="none" stroke="#f1efed" stroke-width="2" stroke-linecap="round" stroke-linejoin="round"><path d="M 3.235 16.59 L 15.009 2.054 C 15.021 2.037 15.036 2.024 15.054 2.014 C 15.073 2.005 15.093 2 15.113 2 C 15.132 2 15.15 2.004 15.167 2.011 C 15.184 2.019 15.2 2.03 15.212 2.044 C 15.224 2.058 15.234 2.075 15.239 2.092 C 15.245 2.11 15.247 2.129 15.244 2.148 L 13.544 11.44 L 20.417 11.44 L 8.643 25.979 C 8.631 25.995 8.615 26.008 8.598 26.016 C 8.58 26.025 8.561 26.03 8.541 26.03 C 8.523 26.03 8.504 26.026 8.487 26.018 C 8.471 26.01 8.456 25.999 8.444 25.985 C 8.432 25.971 8.423 25.954 8.418 25.936 C 8.414 25.918 8.413 25.9 8.416 25.881 L 10.108 16.59 Z"/></svg>
